<?xml version="1.0" encoding="utf-8"?><!-- Uploaded to: SVG Repo, www.svgrepo.com, Generator: SVG Repo Mixer Tools -->
<svg version="1.1" id="designs" xmlns="http://www.w3.org/2000/svg" xmlns:xlink="http://www.w3.org/1999/xlink" 
	 width="800px" height="800px" viewBox="0 0 32 32" xml:space="preserve">
<style type="text/css">
	.sketchy_een{fill:#111918;}
</style>
<path class="sketchy_een" d="M27.55,3.744c-0.063-0.318-0.266-0.614-0.484-0.848c-0.145-0.157-0.329-0.283-0.524-0.367
	c-0.211-0.09-0.421-0.186-0.643-0.243c-0.337-0.084-0.685-0.098-1.029-0.103c-0.679-0.01-1.357-0.061-2.036-0.075
	C22.445,2.1,22.059,2.094,21.67,2.092c-0.362-0.002-0.721-0.023-1.081-0.04c-0.57-0.025-1.138-0.044-1.707-0.052
	c-0.027,0-0.053,0-0.08,0c-0.395,0-0.793,0.055-1.146,0.242c-0.209,0.111-0.406,0.233-0.589,0.385
	C16.94,2.73,16.825,2.85,16.709,2.965c-0.233,0.232-0.369,0.559-0.461,0.869c-0.069,0.231-0.088,0.48-0.109,0.721
	c-0.015,0.174-0.019,0.348-0.034,0.522c-0.021,0.245,0.025,0.484,0.067,0.725c0.037,0.226,0.209,0.41,0.418,0.516
	c0.078,0.11,0.184,0.198,0.306,0.261c0.007,0.225,0.013,0.45,0.019,0.675c-0.028-0.002-0.057-0.001-0.085-0.004
	c-0.232-0.032-0.465-0.063-0.699-0.09c-0.018-0.002-0.035-0.003-0.053-0.003c-0.205,0-0.433,0.126-0.57,0.261
	c-0.165,0.167-0.258,0.392-0.258,0.626c0,0.231,0.094,0.459,0.258,0.624c0.18,0.178,0.381,0.231,0.624,0.258
	c0.176,0.019,0.35,0.038,0.526,0.052c0.09,0.007,0.174-0.011,0.259-0.013c-0.015,0.632-0.027,1.263-0.022,1.895
	c0.004,0.302-0.002,0.607,0.015,0.909c0.013,0.251,0.033,0.501,0.044,0.754c0.021,0.532,0.015,1.066,0.029,1.598
	c0.002,0.092-0.002,0.184-0.001,0.277c-0.207,0.002-0.414-0.004-0.619-0.004c-0.595-0.002-1.188,0.021-1.783,0.021
	c-0.735,0-1.47,0.015-2.204,0.008c-0.798-0.008-1.596-0.01-2.394-0.006c-0.297,0.002-0.591,0.002-0.886,0
	c-1.16,0-2.319-0.002-3.477,0.067c-0.129,0.008-0.246,0.048-0.355,0.103c-0.007,0-0.013-0.004-0.02-0.004
	c-0.461,0-0.853,0.386-0.852,0.852c0.002,0.321,0.011,0.643,0.023,0.964c0.006,0.182-0.008,0.364,0.01,0.543
	c0.031,0.285,0.08,0.633,0.26,0.871c0.128,0.17,0.145,0.203,0.323,0.322c0.075,0.05,0.178,0.088,0.253,0.115
	c0.03,0.01,0.062,0.01,0.093,0.016c-0.04,0.367-0.069,0.732-0.076,1.101c-0.006,0.331,0.002,0.66,0.006,0.991
	c0.008,0.53,0.18,1.022,0.379,1.506c0.061,0.146,0.117,0.287,0.199,0.423c0.082,0.138,0.188,0.266,0.287,0.392
	c0.168,0.21,0.381,0.388,0.593,0.547c0.23,0.172,0.528,0.262,0.798,0.348c0.247,0.078,0.507,0.105,0.762,0.141
	c0.459,0.065,0.92,0.071,1.383,0.081c0.324,0.008,0.638-0.007,0.955-0.04c0.008,0.093,0.019,0.186,0.023,0.28
	c0.01,0.225,0.024,0.457,0.011,0.682c-0.012,0.055-0.027,0.11-0.046,0.164c-0.017,0.035-0.036,0.069-0.056,0.103
	c-0.05,0.053-0.103,0.104-0.159,0.152c-0.025,0.017-0.051,0.032-0.078,0.047c-0.152,0.055-0.308,0.103-0.461,0.158
	c-0.17,0.062-0.344,0.117-0.52,0.154c-0.111,0.008-0.223,0.008-0.335,0.022c-0.22,0.027-0.408,0.05-0.607,0.163
	c-0.157,0.088-0.31,0.209-0.438,0.341c-0.321,0.329-0.57,0.742-0.7,1.185c-0.098,0.335-0.111,0.696-0.122,1.043
	c-0.011,0.367-0.054,0.746,0.029,1.108c0.103,0.461,0.628,0.725,1.066,0.605c0.02-0.006,0.036-0.021,0.055-0.028
	c2.138-0.135,4.282-0.113,6.424-0.087c1.064,0.013,2.128,0.027,3.194,0.019c1.169-0.008,2.336,0.031,3.505,0.084
	c0.511,0.023,1.02,0.048,1.533,0.038c0.35-0.006,0.7-0.004,1.049,0.013c0.471,0.021,0.863-0.409,0.863-0.863
	c0-0.115-0.023-0.227-0.067-0.332c0.021-0.1,0.035-0.202,0.025-0.307c-0.01-0.115-0.015-0.229-0.021-0.346
	c-0.017-0.299-0.05-0.603-0.126-0.894c-0.059-0.222-0.161-0.436-0.251-0.646c-0.09-0.212-0.22-0.394-0.369-0.572
	c-0.055-0.063-0.119-0.123-0.182-0.178c-0.163-0.14-0.329-0.287-0.522-0.383c-0.243-0.121-0.501-0.212-0.758-0.306
	c-0.421-0.153-0.882-0.147-1.303-0.303c-0.226-0.099-0.459-0.2-0.664-0.334c-0.006-0.005-0.011-0.01-0.016-0.016
	c-0.004-0.008-0.009-0.015-0.013-0.023c-0.001-0.002-0.001-0.004-0.002-0.006c-0.001-0.107,0.015-0.213,0.025-0.319
	c0.175-0.015,0.349-0.032,0.524-0.039c0.189-0.006,0.381-0.015,0.568-0.031c0.432-0.038,0.886-0.042,1.305-0.155
	c0.647-0.174,1.244-0.561,1.655-1.089c0.159-0.205,0.306-0.4,0.417-0.633c0.113-0.239,0.209-0.488,0.309-0.733
	c0.151-0.363,0.284-0.719,0.338-1.113c0.031-0.216,0.052-0.425,0.052-0.643c0-0.142-0.004-0.286,0.006-0.429
	c0.048-0.266,0.12-0.53,0.191-0.79c0.004-0.015,0-0.03,0.003-0.044c0.16-0.122,0.291-0.286,0.411-0.448
	c0.121-0.163,0.201-0.331,0.272-0.521c0.119-0.312,0.145-0.637,0.174-0.966c0.019-0.226,0.05-0.451,0.063-0.677
	c0.023-0.369,0.015-0.74,0.023-1.112c0.015-0.641,0.015-1.292-0.015-1.933c-0.013-0.337-0.05-0.674-0.069-1.008
	c-0.023-0.408-0.031-0.817-0.046-1.225c-0.046-1.267,0.044-2.531,0.117-3.796c0-0.009-0.005-0.016-0.004-0.024
	c0.17-0.076,0.319-0.199,0.426-0.363c0.149-0.23,0.186-0.557,0.22-0.821c0.025-0.186,0.031-0.373,0.034-0.559
	C27.604,4.595,27.637,4.165,27.55,3.744z M25.816,4.096L25.816,4.096c-0.009-0.004-0.018-0.007-0.027-0.011
	C25.798,4.088,25.807,4.092,25.816,4.096z M18.698,3.573c0.017-0.002,0.035-0.005,0.052-0.007c-0.02,0.002-0.039,0.005-0.059,0.008
	C18.694,3.574,18.696,3.573,18.698,3.573z M24.091,19.357c-0.012,0.212-0.01,0.424-0.027,0.635c-0.061,0.332-0.172,0.661-0.3,0.972
	c-0.127,0.288-0.261,0.57-0.442,0.828c-0.045,0.049-0.093,0.095-0.142,0.14c-0.112,0.078-0.228,0.149-0.349,0.212
	c-0.138,0.048-0.278,0.085-0.423,0.11c-0.264,0.032-0.533,0.057-0.797,0.071c-0.411,0.021-0.827-0.002-1.238-0.004
	c-0.288-0.001-0.538,0.143-0.711,0.354c-0.085,0.019-0.167,0.047-0.242,0.092c-0.128,0.075-0.23,0.176-0.306,0.304
	c-0.077,0.132-0.115,0.276-0.115,0.431c-0.08,0.639-0.191,1.353,0.182,1.929c0.22,0.341,0.555,0.601,0.926,0.763
	c0.132,0.057,0.26,0.121,0.388,0.186c0.27,0.136,0.54,0.207,0.83,0.268c0.307,0.064,0.619,0.103,0.91,0.217
	c0.051,0.021,0.102,0.043,0.152,0.064c0.095,0.044,0.184,0.094,0.271,0.153c0.044,0.038,0.085,0.078,0.124,0.12
	c0.056,0.085,0.104,0.173,0.147,0.265c0.063,0.171,0.107,0.345,0.136,0.525c0.013,0.109,0.015,0.219,0.019,0.328
	c-0.026,0-0.053,0.001-0.079,0.003c-0.178,0.006-0.354,0.027-0.53,0.031c-0.409,0.01-0.817,0.008-1.227,0.006
	c-0.255-0.002-0.511-0.002-0.765-0.002c-0.829,0.004-1.655,0.027-2.482,0.021c-0.79-0.008-1.579-0.031-2.367-0.04
	c-0.331-0.002-0.66,0-0.989,0c-0.289,0.002-0.578,0.002-0.865,0c-0.614-0.006-1.227-0.015-1.839-0.012
	c-0.618,0.004-1.232,0.004-1.848-0.004c-0.428-0.006-0.857-0.013-1.285-0.013c0-0.209,0.009-0.418,0.03-0.624
	c0.016-0.082,0.038-0.162,0.066-0.241c0.038-0.075,0.081-0.147,0.128-0.218c0.03-0.033,0.062-0.065,0.095-0.095
	c0.006-0.004,0.012-0.008,0.018-0.012c0.05-0.013,0.101-0.023,0.154-0.03c-0.016,0.002-0.032,0.004-0.047,0.006
	c0.363-0.052,0.716-0.124,1.067-0.244c0.161-0.054,0.327-0.1,0.486-0.163c0.226-0.09,0.352-0.165,0.543-0.312
	c0.086-0.069,0.17-0.138,0.251-0.212c0.434-0.398,0.639-0.951,0.652-1.533c0.013-0.583-0.023-1.173-0.073-1.755
	c-0.019-0.222-0.077-0.413-0.239-0.576c-0.11-0.11-0.255-0.171-0.408-0.204c-0.143-0.093-0.317-0.156-0.478-0.139
	c-0.204,0.018-0.405,0.053-0.607,0.085c-0.142,0.01-0.283,0.004-0.426,0.003c-0.188-0.004-0.375,0.006-0.563,0.006
	c-0.382,0-0.771,0-1.151-0.037c-0.209-0.034-0.416-0.082-0.617-0.151c-0.038-0.019-0.075-0.04-0.111-0.062
	c-0.097-0.085-0.19-0.179-0.273-0.276c-0.07-0.102-0.131-0.209-0.183-0.322c-0.057-0.136-0.115-0.273-0.173-0.408
	c0.027,0.063,0.055,0.126,0.082,0.191c-0.083-0.203-0.138-0.413-0.179-0.625c-0.016-0.178-0.02-0.358-0.026-0.536
	c-0.007-0.261-0.018-0.531,0.006-0.792c0.035-0.241,0.069-0.483,0.101-0.725c0.462,0,0.925,0,1.387-0.009
	c0.695-0.013,1.393-0.023,2.088,0.002c0.364,0.015,0.727,0.008,1.091,0.013c0.383,0.008,0.763,0.015,1.144,0.015
	c0.721,0,1.443,0.017,2.164,0.01c0.375-0.004,0.75,0.002,1.125,0.01c0.312,0.004,0.624,0.01,0.938,0.008
	c0.339,0,0.677,0.002,1.016-0.004c0.385-0.006,0.763,0.011,1.148,0.035c0.352,0.021,0.704,0.019,1.058,0.019
	c0.369,0,0.739,0,1.108,0.021c0.31,0.019,0.622,0.025,0.932,0.034c0.232,0.006,0.457,0.042,0.689,0.034
	c0.419-0.013,0.838,0,1.257-0.029c0.048-0.003,0.096-0.007,0.143-0.011C24.16,18.753,24.11,19.055,24.091,19.357z M25.108,16.035
	c-0.018,0.219-0.043,0.438-0.07,0.656c-0.005,0.032-0.014,0.063-0.02,0.094c-0.329-0.013-0.663,0.006-0.985,0.036
	c-0.434,0.04-0.873,0.036-1.307,0.023c-0.096-0.004-0.189,0.004-0.285,0.008c-0.163,0.01-0.327-0.008-0.492-0.017
	c-0.174-0.011-0.346-0.023-0.522-0.027c-0.075,0-0.147,0.004-0.222,0.006c-0.075,0.004-0.147,0.008-0.222,0.006
	c-0.39-0.006-0.781-0.029-1.171-0.023c-0.364,0.006-0.727-0.01-1.091-0.021c-0.725-0.027-1.452-0.031-2.177-0.023
	c-0.693,0.006-1.383,0.031-2.074,0.023c-0.356-0.004-0.71,0.013-1.066,0.025c-0.375,0.011-0.75,0.002-1.123-0.002
	c-0.733-0.008-1.464-0.025-2.195-0.019c-0.718,0.004-1.433-0.002-2.151-0.013c-0.369-0.006-0.739-0.006-1.108-0.021
	c-0.242-0.011-0.486-0.017-0.728-0.033c-0.017-0.224-0.018-0.45-0.015-0.676c0.706-0.056,1.412-0.117,2.119-0.137
	c0.786-0.021,1.573-0.017,2.361-0.017c1.508,0.002,3.018,0.025,4.525,0.036c0.232,0.002,0.461,0.023,0.693,0.025
	c0.232,0.002,0.465-0.004,0.696-0.004c0.253-0.002,0.507-0.015,0.762,0.002c0.111,0.008,0.22,0.008,0.331,0.006
	c0.057,0,0.114,0,0.171,0c0.293,0.019,0.581-0.125,0.734-0.386c0.08-0.134,0.101-0.291,0.091-0.446
	c0.024-0.078,0.063-0.152,0.064-0.236c0.011-0.119-0.004-0.241-0.006-0.36c-0.002-0.155,0.002-0.308,0.006-0.461
	c0.008-0.272,0.01-0.543,0.013-0.817c0.002-0.264,0.002-0.528-0.002-0.792c-0.004-0.256-0.038-0.511-0.054-0.767
	c-0.04-0.664-0.052-1.33-0.057-1.996c-0.008-0.746-0.023-1.492-0.011-2.239c0.004-0.249,0.006-0.499,0.01-0.748
	c0.382-0.006,0.765-0.019,1.149-0.033c0.362-0.013,0.727-0.023,1.089-0.013c0.377,0.011,0.752,0.038,1.129,0.038
	c0.71-0.002,1.422,0.004,2.132,0.011c0.375,0.003,0.752,0.026,1.128,0.046c-0.001,0.014-0.009,0.026-0.009,0.041
	c-0.086,1.762-0.059,3.527-0.019,5.289C25.158,13.392,25.213,14.72,25.108,16.035z M25.897,5.256c-0.239,0.001-0.478,0-0.719-0.012
	c-0.52-0.027-1.041-0.038-1.563-0.04c-0.742-0.004-1.483-0.031-2.225-0.057c-0.534-0.019-1.068-0.017-1.602-0.017
	c-0.188,0-0.375,0.002-0.561,0c-0.277-0.002-0.549-0.021-0.827-0.042c-0.212-0.016-0.425-0.03-0.637-0.043
	c-0.001-0.096,0.001-0.193,0-0.29c-0.002-0.138,0-0.275,0.011-0.413c0.018-0.082,0.041-0.162,0.07-0.242
	c0.009-0.018,0.018-0.035,0.028-0.052c0.09-0.093,0.189-0.179,0.289-0.262c0.082-0.055,0.168-0.105,0.256-0.15
	c0.066-0.021,0.133-0.036,0.202-0.048c0.423-0.043,0.857-0.031,1.282-0.012c0.566,0.021,1.131,0.065,1.697,0.094
	c1.177,0.057,2.359,0.091,3.532,0.22c0.202,0.039,0.391,0.095,0.582,0.168c0.046,0.021,0.091,0.043,0.134,0.069
	c0.006,0.006,0.013,0.012,0.019,0.018c0.006,0.01,0.011,0.02,0.017,0.03c0.003,0.013,0.007,0.026,0.01,0.039
	c0.014,0.226,0.003,0.457,0.006,0.681C25.899,5.013,25.899,5.135,25.897,5.256z"/>
</svg>