<?xml version="1.0" encoding="utf-8"?>

<!-- Uploaded to: SVG Repo, www.svgrepo.com, Generator: SVG Repo Mixer Tools -->
<svg version="1.1" id="Icons" xmlns="http://www.w3.org/2000/svg" xmlns:xlink="http://www.w3.org/1999/xlink" 
	 viewBox="0 0 32 32" xml:space="preserve">
<style type="text/css">
	.st0{fill:none;stroke:#000000;stroke-width:2;stroke-linecap:round;stroke-linejoin:round;stroke-miterlimit:10;}
	.st1{fill:none;stroke:#000000;stroke-width:2;stroke-linejoin:round;stroke-miterlimit:10;}
</style>
<path class="st0" d="M24.5,27.5L23,29c-1.4,1.4-3.6,1.4-5,0l0,0c-1.4-1.4-1.4-3.6,0-5l1.5-1.5"/>
<path class="st0" d="M21.5,20.5L23,19c1.4-1.4,3.6-1.4,5,0l0,0c1.4,1.4,1.4,3.6,0,5l-1.5,1.5"/>
<line class="st0" x1="21.5" y1="25.5" x2="24.5" y2="22.5"/>
<path class="st0" d="M18,18.2c1.8-1,3-3,3-5.2v0c0-1.1,0.9-2,2-2h0l0-2.3c0-2.8-2.1-5.4-4.9-5.7c-2-0.2-3.8,0.6-4.9,2.1
	c-0.8-0.2-1.6-0.1-2.6,0.6C9.6,6.4,9,7.7,9,9l0,1v1.5v1.3c0,2.2,1.2,4.3,3,5.4v0c0,2.3-1.6,4.2-3.8,4.8c-2.6,0.7-4.5,2.8-5.1,5.4
	C3.1,28.7,3.3,29,3.7,29H18"/>
</svg>